<?xml version="1.0" encoding="utf-8"?>
<!-- Generator: Adobe Illustrator 14.0.0, SVG Export Plug-In . SVG Version: 6.00 Build 43363)  -->
<!DOCTYPE svg PUBLIC "-//W3C//DTD SVG 1.1//EN" "http://www.w3.org/Graphics/SVG/1.1/DTD/svg11.dtd">
<svg version="1.1" id="Capa_1" xmlns="http://www.w3.org/2000/svg" xmlns:xlink="http://www.w3.org/1999/xlink" x="0px" y="0px"
	 width="294.064px" height="128.865px" viewBox="0 0 294.064 128.865" enable-background="new 0 0 294.064 128.865"
	 xml:space="preserve">
<polygon fill="#FFFFFF" points="17.875,8.162 17.875,11.763 22.497,11.763 22.497,14.542 17.875,14.542 17.875,21.747 
	14.681,21.747 14.681,5.383 22.8,5.383 22.8,8.162 "/>
<path fill="#FFFFFF" d="M43.107,5.382h3.19v9.159c0,2.019,0.171,4.862,2.885,4.862c2.713,0,2.885-2.843,2.885-4.862V5.382h3.19v9.79
	c0,3.989-1.693,7.006-6.075,7.006c-4.383,0-6.075-3.017-6.075-7.006V5.382z"/>
<polygon fill="#FFFFFF" points="75.978,4.949 78.28,4.949 86.892,16.385 86.938,16.385 86.938,5.383 90.127,5.383 90.127,22.073 
	87.826,22.073 79.214,10.635 79.167,10.635 79.167,21.747 75.978,21.747 "/>
<path fill="#FFFFFF" d="M110.914,5.382h4.556c4.733,0,7.902,3.536,7.902,8.203c0,4.601-3.259,8.161-7.923,8.161h-4.535V5.382z
	 M114.104,18.967h0.518c3.93,0,5.449-2.171,5.449-5.402c0-3.559-1.821-5.404-5.449-5.404h-0.518V18.967z"/>
<path fill="#FFFFFF" d="M146.74,18.294l-1.346,3.452h-3.363l6.377-16.798h2.473l6.211,16.798h-3.41l-1.253-3.452H146.74z
	 M149.497,9.744h-0.043l-1.803,5.946h3.887L149.497,9.744z"/>
<path fill="#FFFFFF" d="M187.473,9.723c-0.889-1.086-2.236-1.734-3.604-1.734c-3.061,0-4.818,2.819-4.818,5.641
	c0,2.754,1.824,5.51,4.794,5.51c1.368,0,2.741-0.715,3.629-1.734v3.797c-1.195,0.565-2.39,0.975-3.71,0.975
	c-4.602,0-8.012-3.968-8.012-8.482c0-4.646,3.279-8.747,8.076-8.747c1.277,0,2.539,0.348,3.646,0.953L187.473,9.723L187.473,9.723z"
	/>
<rect x="208.043" y="5.383" fill="#FFFFFF" width="3.189" height="16.364"/>
<path fill="#FFFFFF" d="M239.322,22.178c-4.989,0-8.096-3.818-8.096-8.635c0-4.861,3.217-8.594,8.096-8.594
	c4.884,0,8.099,3.733,8.099,8.594C247.42,18.36,244.315,22.178,239.322,22.178 M239.322,8.094c-3.014,0-4.795,2.672-4.795,5.318
	c0,2.517,1.259,5.618,4.795,5.618c3.537,0,4.796-3.101,4.796-5.618C244.118,10.766,242.338,8.094,239.322,8.094 M242.386,1.346
	l-3.279,3.258l-1.54-0.956L240.17,0L242.386,1.346z"/>
<polygon fill="#FFFFFF" points="267.45,4.949 269.749,4.949 278.364,16.385 278.409,16.385 278.409,5.383 281.592,5.383 
	281.592,22.073 279.295,22.073 270.676,10.635 270.635,10.635 270.635,21.747 267.45,21.747 "/>
<path fill="#FFFFFF" d="M230.797,79.535c-0.021-39.373-23.112-45.936-52.607-46.139l-25.076,0.026v1.663
	c9.738,0.794,8.332,4.909,8.432,12.592v53.481h0.119v27.833l16.525,0.015c24.152-0.155,43.678-4.623,50.102-27.835h0.026
	C229.981,95.285,230.797,88.151,230.797,79.535 M213.358,88.547c-0.229,2.394-0.594,5.015-1.166,7.601
	c-0.652,3.039-2.48,8.545-3.805,11.153c-1.977,3.828-4.073,7.843-8.903,10.712c-4.995,2.938-8.761,4.178-15.524,4.178
	c-2.055,0-3.903-0.358-5.137-0.752v-20.281V40.75c1.229-0.41,2.867-0.552,4.94-0.552c25.601,0,29.571,18.906,29.989,39.336
	C213.771,81.132,213.768,84.526,213.358,88.547"/>
<path fill="#FFFFFF" d="M271.575,120.806c-10.189,0-11.418-4.07-11.418-11.883l-0.238-29.172h25.939v-0.342h0.042v-5.287
	c0,0-0.017,0-0.042-0.016v-2.123h-25.869l-0.07-0.019l0.01-22.699c0-7.244,0.701-8.752,8.65-8.752h9.092h16.359l0.034-7.131h-59.661
	v1.678c9.737,0.786,8.33,4.911,8.44,12.6v81.294h51.221v-8.149h-12.957H271.575z"/>
<path fill="#FFFFFF" d="M117.472,33.396l-19.625-0.013v1.679c6.755,0.581,8.033,3.532,7.291,7.363
	c-0.128,1.054-1.187,4.086-2.331,7.118c-1.416,3.82-29.646,79.435-29.646,79.435h10.828l15.45-42.396h23.029l15.222,42.396h15.941
	L117.472,33.396z M101.055,79.797l9.431-26.072l9.79,26.072H101.055z"/>
<path fill="#FFFFFF" d="M70.812,100.683h-0.003V33.369H59.278l0.021,67.313c0,0,0.01,2.164-0.139,4.559
	c-0.255,3.66-0.738,8.456-3.743,12.009c-2.304,2.722-5.853,3.918-8.458,4.367c-2.513,0.465-7.353,0.254-9.215-0.089
	c-2.706-0.487-6.007-1.674-8.431-4.575c-3.001-3.563-3.684-8.699-3.871-12.269c-0.11-2.399-0.031-4.107-0.031-4.107h-0.015V33.395
	h-0.34L0,33.421v1.663c9.723,0.794,8.301,4.91,8.423,12.592v52.901c0,0,0.023,2.07,0.376,4.908
	c0.971,7.777,4.734,23.257,33.298,23.38c9.441-0.199,17.063-2.128,21.359-6.482C70.93,115.974,70.812,100.683,70.812,100.683"/>
</svg>
